M48
; DRILL file {KiCad 9.0.0} date 2025-03-09T14:42:04-0400
; FORMAT={-:-/ absolute / metric / decimal}
; #@! TF.CreationDate,2025-03-09T14:42:04-04:00
; #@! TF.GenerationSoftware,Kicad,Pcbnew,9.0.0
; #@! TF.FileFunction,NonPlated,1,2,NPTH
FMAT,2
METRIC
; #@! TA.AperFunction,NonPlated,NPTH,ComponentDrill
T1C0.800
; #@! TA.AperFunction,NonPlated,NPTH,ComponentDrill
T2C1.500
; #@! TA.AperFunction,NonPlated,NPTH,ComponentDrill
T3C3.000
; #@! TA.AperFunction,NonPlated,NPTH,ComponentDrill
T4C5.000
%
G90
G05
T1
X275.101Y-151.41
X276.839Y-151.876
X277.023Y-144.66
X278.761Y-145.125
T3
X139.6Y-73.65
X139.6Y-91.8
X139.6Y-110.0
X139.6Y-128.2
X141.4Y-74.7
X141.4Y-92.85
X141.4Y-111.05
X141.4Y-129.25
X146.6Y-74.7
X146.6Y-92.85
X146.6Y-111.05
X146.6Y-129.25
X148.4Y-73.65
X148.4Y-91.8
X148.4Y-110.0
X148.4Y-128.2
X163.6Y-55.4
X163.6Y-73.6
X163.6Y-91.8
X163.6Y-110.0
X163.6Y-128.25
X165.4Y-56.45
X165.4Y-74.65
X165.4Y-92.85
X165.4Y-111.05
X165.4Y-129.3
X170.6Y-56.45
X170.6Y-74.65
X170.6Y-92.85
X170.6Y-111.05
X170.6Y-129.3
X172.4Y-55.4
X172.4Y-73.6
X172.4Y-91.8
X172.4Y-110.0
X172.4Y-128.25
X182.751Y-128.154
X182.901Y-110.004
X183.051Y-91.754
X183.201Y-73.554
X183.409Y-55.361
X184.54Y-129.222
X184.69Y-111.072
X184.84Y-92.822
X184.99Y-74.622
X185.2Y-56.427
X189.74Y-129.277
X189.89Y-111.127
X190.04Y-92.877
X190.19Y-74.677
X190.4Y-56.472
X191.551Y-128.246
X191.701Y-110.096
X191.851Y-91.846
X192.001Y-73.646
X192.209Y-55.438
X201.583Y-150.064
X201.951Y-125.854
X202.101Y-107.654
X202.301Y-89.454
X202.401Y-71.204
X202.609Y-53.061
X203.263Y-151.297
X203.74Y-126.922
X203.89Y-108.722
X204.09Y-90.522
X204.19Y-72.272
X204.4Y-54.127
X208.435Y-151.84
X208.94Y-126.977
X209.09Y-108.777
X209.29Y-90.577
X209.39Y-72.327
X209.6Y-54.172
X210.335Y-150.984
X210.751Y-125.946
X210.901Y-107.746
X211.101Y-89.546
X211.201Y-71.296
X211.409Y-53.138
X221.151Y-128.504
X221.301Y-110.254
X221.451Y-92.104
X221.601Y-73.904
X221.759Y-55.661
X221.777Y-152.015
X222.94Y-129.572
X223.09Y-111.322
X223.24Y-93.172
X223.342Y-153.392
X223.39Y-74.972
X223.55Y-56.727
X228.14Y-129.627
X228.29Y-111.377
X228.44Y-93.227
X228.444Y-154.393
X228.59Y-75.027
X228.75Y-56.772
X229.951Y-128.596
X230.101Y-110.346
X230.251Y-92.196
X230.401Y-73.996
X230.413Y-153.709
X230.559Y-55.738
X240.551Y-112.957
X241.003Y-94.707
X241.203Y-76.557
X241.308Y-155.811
X241.577Y-58.33
X242.329Y-114.044
X242.612Y-157.436
X242.78Y-95.794
X242.98Y-77.644
X243.36Y-59.408
X247.467Y-159.3
X247.527Y-114.153
X247.979Y-95.903
X248.179Y-77.753
X248.559Y-59.49
X249.349Y-113.141
X249.523Y-158.965
X249.801Y-94.891
X250.001Y-76.741
X250.376Y-58.469
X259.611Y-163.373
X260.616Y-165.199
X265.078Y-167.869
X267.162Y-167.892
T4
X144.0Y-68.95
X144.0Y-87.1
X144.0Y-105.3
X144.0Y-123.5
X168.0Y-50.7
X168.0Y-68.9
X168.0Y-87.1
X168.0Y-105.3
X168.0Y-123.55
X187.2Y-123.5
X187.35Y-105.35
X187.5Y-87.1
X187.65Y-68.9
X187.85Y-50.7
X206.4Y-121.2
X206.45Y-145.85
X206.55Y-103.0
X206.75Y-84.8
X206.85Y-66.55
X207.05Y-48.4
X225.6Y-123.85
X225.75Y-105.6
X225.9Y-87.45
X226.05Y-69.25
X226.2Y-51.0
X227.0Y-148.25
X245.048Y-108.35
X245.5Y-90.1
X245.7Y-71.95
X246.05Y-53.7
X247.1Y-153.0
X265.8Y-161.6
T2
G00X260.707Y-124.16
M15
G01X259.408Y-124.167
M16
G05
G00X260.766Y-135.36
M15
G01X259.466Y-135.367
M16
G05
M30
