M48
; DRILL file {KiCad 9.0.0} date 2025-03-09T14:42:04-0400
; FORMAT={-:-/ absolute / metric / decimal}
; #@! TF.CreationDate,2025-03-09T14:42:04-04:00
; #@! TF.GenerationSoftware,Kicad,Pcbnew,9.0.0
; #@! TF.FileFunction,Plated,1,2,PTH
FMAT,2
METRIC
; #@! TA.AperFunction,Plated,PTH,ViaDrill
T1C0.300
; #@! TA.AperFunction,Plated,PTH,ComponentDrill
T2C0.750
; #@! TA.AperFunction,Plated,PTH,ComponentDrill
T3C1.000
; #@! TA.AperFunction,Plated,PTH,ComponentDrill
T4C3.200
%
G90
G05
T1
X136.0Y-75.5
X136.0Y-93.75
X136.0Y-111.75
X136.25Y-130.0
X151.5Y-112.0
X151.75Y-93.75
X151.8Y-75.7
X151.9Y-129.9
X160.0Y-57.25
X160.0Y-75.5
X160.0Y-93.75
X160.0Y-112.0
X160.0Y-130.25
X175.75Y-57.25
X175.75Y-93.5
X175.75Y-112.0
X176.0Y-75.5
X176.0Y-130.25
X179.0Y-130.25
X179.25Y-93.75
X179.25Y-112.0
X179.5Y-75.5
X180.0Y-57.25
X195.0Y-112.0
X195.125Y-130.125
X195.25Y-75.5
X195.25Y-94.25
X195.5Y-57.5
X197.5Y-151.75
X198.25Y-109.75
X198.5Y-73.5
X198.5Y-91.75
X198.5Y-127.75
X198.75Y-55.25
X213.5Y-153.25
X214.25Y-128.0
X214.5Y-91.75
X214.5Y-109.75
X214.75Y-73.5
X215.0Y-55.5
X217.25Y-112.5
X217.25Y-153.25
X217.549Y-130.451
X217.75Y-76.0
X217.75Y-94.25
X218.0Y-58.0
X233.25Y-156.25
X233.5Y-94.5
X233.5Y-131.0
X233.75Y-112.5
X234.0Y-58.0
X234.0Y-76.25
X236.75Y-115.25
X237.0Y-96.75
X237.25Y-78.75
X237.25Y-156.25
X237.75Y-60.5
X252.25Y-162.25
X252.879Y-115.129
X253.23Y-96.98
X253.38Y-78.88
X253.85Y-60.75
X255.0Y-163.25
X269.0Y-171.75
X269.4Y-71.5
X270.85Y-61.5
X270.85Y-70.1
X270.9Y-96.5
X271.2Y-99.85
X271.3Y-98.85
X271.4Y-102.45
X273.5Y-154.25
X274.351Y-150.558
X275.15Y-96.8
X275.201Y-139.951
X275.25Y-155.0
X276.089Y-151.139
X276.596Y-141.904
X277.0Y-148.25
X278.126Y-148.25
X279.058Y-141.75
T2
X278.1Y-108.3
X278.1Y-110.3
X278.1Y-114.9
X278.1Y-116.9
T3
X140.15Y-132.45
X140.2Y-113.7
X140.35Y-95.6
X140.4Y-77.45
X147.95Y-132.45
X148.0Y-113.7
X148.15Y-95.6
X148.2Y-77.45
X163.85Y-132.3
X164.0Y-59.7
X164.05Y-113.95
X164.25Y-95.75
X164.3Y-77.65
X171.65Y-132.3
X171.8Y-59.7
X171.85Y-113.95
X172.05Y-95.75
X172.1Y-77.65
X182.9Y-132.6
X183.1Y-113.85
X183.4Y-95.6
X183.55Y-77.5
X184.15Y-59.5
X190.7Y-132.6
X190.9Y-113.85
X191.2Y-95.6
X191.35Y-77.5
X191.95Y-59.5
X201.326Y-154.002
X201.9Y-130.2
X202.4Y-111.5
X202.75Y-93.4
X203.05Y-75.15
X203.15Y-56.95
X209.074Y-154.898
X209.7Y-130.2
X210.2Y-111.5
X210.55Y-93.4
X210.85Y-75.15
X210.95Y-56.95
X220.831Y-155.909
X221.0Y-132.95
X221.65Y-114.3
X222.1Y-96.05
X222.3Y-77.9
X222.45Y-59.75
X228.469Y-157.491
X228.8Y-132.95
X229.45Y-114.3
X229.9Y-96.05
X230.1Y-77.9
X230.25Y-59.75
X231.8Y-132.95
X239.6Y-132.95
X240.129Y-159.632
X241.15Y-117.059
X241.45Y-98.694
X241.75Y-80.509
X242.3Y-62.3
X247.271Y-162.768
X248.95Y-117.141
X249.25Y-98.776
X249.55Y-80.591
X250.1Y-62.3
X253.074Y-127.3
X253.1Y-132.3
X257.164Y-166.73
X262.57Y-53.35
X262.57Y-55.89
X262.57Y-58.43
X262.57Y-60.97
X262.57Y-63.51
X262.57Y-66.05
X262.57Y-68.59
X262.57Y-71.13
X262.57Y-73.67
X262.57Y-76.21
X262.57Y-78.75
X262.57Y-81.29
X262.57Y-83.83
X263.836Y-170.77
X265.11Y-78.75
X265.8Y-89.65
X267.574Y-127.224
X267.587Y-129.724
X267.6Y-132.224
X267.65Y-78.75
X268.34Y-89.65
X270.19Y-78.75
X270.88Y-89.65
X273.42Y-89.65
X275.96Y-89.65
X277.81Y-53.35
X277.81Y-55.89
X277.81Y-58.43
X277.81Y-60.97
X277.81Y-63.51
X277.81Y-66.05
X277.81Y-68.59
X277.81Y-71.13
X277.81Y-73.67
X277.81Y-76.21
X277.81Y-78.75
X277.81Y-81.29
X277.81Y-83.83
T4
X150.5Y-53.75
X190.75Y-138.75
X250.25Y-42.75
X250.75Y-167.5
X275.5Y-130.0
M30
