0
SECTION
2
HEADER
9
$INSUNITS
70
4
0
ENDSEC
0
SECTION
2
TABLES
0
TABLE
2
LTYPE
0
LTYPE
72
65
70
64
2
CONTINUOUS
3
______
73
0
40
0
0
ENDTAB
0
TABLE
2
LAYER
0
ENDTAB
0
ENDSEC
0
SECTION
2
ENTITIES
0
LINE
8
0
10
101.9924469
20
-170.9992457
11
115.9500751
21
-174.7391809
0
LINE
8
0
10
115.9500751
20
-174.7391809
11
119.5606007
21
-161.2645157
0
LINE
8
0
10
119.5606007
20
-161.2645157
11
105.6029725
21
-157.5245805
0
LINE
8
0
10
105.6029725
20
-157.5245805
11
101.9924469
21
-170.9992457
0
LINE
8
0
10
106.7029535
20
-153.4193956
11
120.6605817
21
-157.1593308
0
LINE
8
0
10
120.6605817
20
-157.1593308
11
124.2711073
21
-143.6846656
0
LINE
8
0
10
124.2711073
20
-143.6846656
11
110.3134791
21
-139.9447304
0
LINE
8
0
10
110.3134791
20
-139.9447304
11
106.7029535
21
-153.4193956
0
LINE
8
0
10
111.4134601
20
-135.8395456
11
125.3710883
21
-139.5794808
0
LINE
8
0
10
125.3710883
20
-139.5794808
11
128.9816139
21
-126.1048156
0
LINE
8
0
10
128.9816139
20
-126.1048156
11
115.0239857
21
-122.3648804
0
LINE
8
0
10
115.0239857
20
-122.3648804
11
111.4134601
21
-135.8395456
0
LINE
8
0
10
116.1239668
20
-118.2596956
11
130.081595
21
-121.9996308
0
LINE
8
0
10
130.081595
20
-121.9996308
11
133.6921206
21
-108.5249656
0
LINE
8
0
10
133.6921206
20
-108.5249656
11
119.7344924
21
-104.7850304
0
LINE
8
0
10
119.7344924
20
-104.7850304
11
116.1239668
21
-118.2596956
0
LINE
8
0
10
125.1746667
20
-177.2109028
11
139.1322949
21
-180.950838
0
LINE
8
0
10
139.1322949
20
-180.950838
11
142.7428205
21
-167.4761728
0
LINE
8
0
10
142.7428205
20
-167.4761728
11
128.7851923
21
-163.7362376
0
LINE
8
0
10
128.7851923
20
-163.7362376
11
125.1746667
21
-177.2109028
0
LINE
8
0
10
129.8851734
20
-159.6310527
11
143.8428016
21
-163.3709879
0
LINE
8
0
10
143.8428016
20
-163.3709879
11
147.4533272
21
-149.8963227
0
LINE
8
0
10
147.4533272
20
-149.8963227
11
133.495699
21
-146.1563875
0
LINE
8
0
10
133.495699
20
-146.1563875
11
129.8851734
21
-159.6310527
0
LINE
8
0
10
134.59568
20
-142.0512027
11
148.5533082
21
-145.7911379
0
LINE
8
0
10
148.5533082
20
-145.7911379
11
152.1638338
21
-132.3164727
0
LINE
8
0
10
152.1638338
20
-132.3164727
11
138.2062056
21
-128.5765375
0
LINE
8
0
10
138.2062056
20
-128.5765375
11
134.59568
21
-142.0512027
0
LINE
8
0
10
139.3061866
20
-124.4713526
11
153.2638148
21
-128.2112878
0
LINE
8
0
10
153.2638148
20
-128.2112878
11
156.8743404
21
-114.7366226
0
LINE
8
0
10
156.8743404
20
-114.7366226
11
142.9167122
21
-110.9966874
0
LINE
8
0
10
142.9167122
20
-110.9966874
11
139.3061866
21
-124.4713526
0
LINE
8
0
10
144.0166932
20
-106.8915026
11
157.9743214
21
-110.6314378
0
LINE
8
0
10
157.9743214
20
-110.6314378
11
161.584847
21
-97.1567726
0
LINE
8
0
10
161.584847
20
-97.1567726
11
147.6272188
21
-93.4168374
0
LINE
8
0
10
147.6272188
20
-93.4168374
11
144.0166932
21
-106.8915026
0
LINE
8
0
10
143.6783018
20
-182.1033885
11
157.6027619
21
-185.9649831
0
LINE
8
0
10
157.6027619
20
-185.9649831
11
161.3307372
21
-172.5223383
0
LINE
8
0
10
161.3307372
20
-172.5223383
11
147.4062771
21
-168.6607437
0
LINE
8
0
10
147.4062771
20
-168.6607437
11
143.6783018
21
-182.1033885
0
LINE
8
0
10
148.5420402
20
-164.5653143
11
162.4665003
21
-168.4269089
0
LINE
8
0
10
162.4665003
20
-168.4269089
11
166.1944756
21
-154.9842641
0
LINE
8
0
10
166.1944756
20
-154.9842641
11
152.2700155
21
-151.1226695
0
LINE
8
0
10
152.2700155
20
-151.1226695
11
148.5420402
21
-164.5653143
0
LINE
8
0
10
153.4057786
20
-147.02724
11
167.3302387
21
-150.8888346
0
LINE
8
0
10
167.3302387
20
-150.8888346
11
171.058214
21
-137.4461898
0
LINE
8
0
10
171.058214
20
-137.4461898
11
157.1337539
21
-133.5845952
0
LINE
8
0
10
157.1337539
20
-133.5845952
11
153.4057786
21
-147.02724
0
LINE
8
0
10
158.269517
20
-129.4891657
11
172.1939771
21
-133.3507603
0
LINE
8
0
10
172.1939771
20
-133.3507603
11
175.9219524
21
-119.9081155
0
LINE
8
0
10
175.9219524
20
-119.9081155
11
161.9974923
21
-116.0465209
0
LINE
8
0
10
161.9974923
20
-116.0465209
11
158.269517
21
-129.4891657
0
LINE
8
0
10
163.1332554
20
-111.9510915
11
177.0577155
21
-115.8126861
0
LINE
8
0
10
177.0577155
20
-115.8126861
11
180.7856908
21
-102.3700413
0
LINE
8
0
10
180.7856908
20
-102.3700413
11
166.8612307
21
-98.5084467
0
LINE
8
0
10
166.8612307
20
-98.5084467
11
163.1332554
21
-111.9510915
0
LINE
8
0
10
162.8481025
20
-184.8252892
11
176.7725626
21
-188.6868838
0
LINE
8
0
10
176.7725626
20
-188.6868838
11
180.5005379
21
-175.244239
0
LINE
8
0
10
180.5005379
20
-175.244239
11
166.5760778
21
-171.3826444
0
LINE
8
0
10
166.5760778
20
-171.3826444
11
162.8481025
21
-184.8252892
0
LINE
8
0
10
167.7118409
20
-167.287215
11
181.636301
21
-171.1488096
0
LINE
8
0
10
181.636301
20
-171.1488096
11
185.3642763
21
-157.7061648
0
LINE
8
0
10
185.3642763
20
-157.7061648
11
171.4398162
21
-153.8445702
0
LINE
8
0
10
171.4398162
20
-153.8445702
11
167.7118409
21
-167.287215
0
LINE
8
0
10
172.5755793
20
-149.7491407
11
186.5000394
21
-153.6107353
0
LINE
8
0
10
186.5000394
20
-153.6107353
11
190.2280147
21
-140.1680905
0
LINE
8
0
10
190.2280147
20
-140.1680905
11
176.3035546
21
-136.3064959
0
LINE
8
0
10
176.3035546
20
-136.3064959
11
172.5755793
21
-149.7491407
0
LINE
8
0
10
177.4393177
20
-132.2110665
11
191.3637778
21
-136.0726611
0
LINE
8
0
10
191.3637778
20
-136.0726611
11
195.0917531
21
-122.6300163
0
LINE
8
0
10
195.0917531
20
-122.6300163
11
181.167293
21
-118.7684217
0
LINE
8
0
10
181.167293
20
-118.7684217
11
177.4393177
21
-132.2110665
0
LINE
8
0
10
182.3030561
20
-114.6729922
11
196.2275162
21
-118.5345868
0
LINE
8
0
10
196.2275162
20
-118.5345868
11
199.9554915
21
-105.091942
0
LINE
8
0
10
199.9554915
20
-105.091942
11
186.0310314
21
-101.2303474
0
LINE
8
0
10
186.0310314
20
-101.2303474
11
182.3030561
21
-114.6729922
0
LINE
8
0
10
180.6817111
20
-192.3653422
11
194.6061712
21
-196.2269368
0
LINE
8
0
10
194.6061712
20
-196.2269368
11
198.3341465
21
-182.784292
0
LINE
8
0
10
198.3341465
20
-182.784292
11
184.4096864
21
-178.9226974
0
LINE
8
0
10
184.4096864
20
-178.9226974
11
180.6817111
21
-192.3653422
0
LINE
8
0
10
185.5454495
20
-174.8272679
11
199.4699096
21
-178.6888625
0
LINE
8
0
10
199.4699096
20
-178.6888625
11
203.1978849
21
-165.2462177
0
LINE
8
0
10
203.1978849
20
-165.2462177
11
189.2734248
21
-161.3846231
0
LINE
8
0
10
189.2734248
20
-161.3846231
11
185.5454495
21
-174.8272679
0
LINE
8
0
10
190.4091879
20
-157.2891937
11
204.333648
21
-161.1507883
0
LINE
8
0
10
204.333648
20
-161.1507883
11
208.0616233
21
-147.7081435
0
LINE
8
0
10
208.0616233
20
-147.7081435
11
194.1371632
21
-143.8465489
0
LINE
8
0
10
194.1371632
20
-143.8465489
11
190.4091879
21
-157.2891937
0
LINE
8
0
10
195.2729263
20
-139.7511194
11
209.1973864
21
-143.612714
0
LINE
8
0
10
209.1973864
20
-143.612714
11
212.9253617
21
-130.1700692
0
LINE
8
0
10
212.9253617
20
-130.1700692
11
199.0009016
21
-126.3084746
0
LINE
8
0
10
199.0009016
20
-126.3084746
11
195.2729263
21
-139.7511194
0
LINE
8
0
10
200.1366647
20
-122.2130451
11
214.0611248
21
-126.0746397
0
LINE
8
0
10
214.0611248
20
-126.0746397
11
217.7891001
21
-112.6319949
0
LINE
8
0
10
217.7891001
20
-112.6319949
11
203.86464
21
-108.7704003
0
LINE
8
0
10
203.86464
20
-108.7704003
11
200.1366647
21
-122.2130451
0
LINE
8
0
10
203.4904512
20
-182.3332275
11
217.3806827
21
-186.3161873
0
LINE
8
0
10
217.3806827
20
-186.3161873
11
221.2258238
21
-172.9065867
0
LINE
8
0
10
221.2258238
20
-172.9065867
11
207.3355923
21
-168.9236269
0
LINE
8
0
10
207.3355923
20
-168.9236269
11
203.4904512
21
-182.3332275
0
LINE
8
0
10
208.5070511
20
-164.8382646
11
222.3972826
21
-168.8212244
0
LINE
8
0
10
222.3972826
20
-168.8212244
11
226.2424237
21
-155.4116238
0
LINE
8
0
10
226.2424237
20
-155.4116238
11
212.3521922
21
-151.428664
0
LINE
8
0
10
212.3521922
20
-151.428664
11
208.5070511
21
-164.8382646
0
LINE
8
0
10
213.523651
20
-147.3433017
11
227.4138825
21
-151.3262615
0
LINE
8
0
10
227.4138825
20
-151.3262615
11
231.2590236
21
-137.9166609
0
LINE
8
0
10
231.2590236
20
-137.9166609
11
217.3687921
21
-133.9337011
0
LINE
8
0
10
217.3687921
20
-133.9337011
11
213.523651
21
-147.3433017
0
LINE
8
0
10
218.5402509
20
-129.8483388
11
232.4304824
21
-133.8312986
0
LINE
8
0
10
232.4304824
20
-133.8312986
11
236.2756235
21
-120.421698
0
LINE
8
0
10
236.2756235
20
-120.421698
11
222.385392
21
-116.4387382
0
LINE
8
0
10
222.385392
20
-116.4387382
11
218.5402509
21
-129.8483388
0
LINE
8
0
10
156.0561111
20
-207.7883995
11
169.5463482
21
-212.9668164
0
LINE
8
0
10
169.5463482
20
-212.9668164
11
174.5455811
21
-199.9433695
0
LINE
8
0
10
174.5455811
20
-199.9433695
11
161.055344
21
-194.7649526
0
LINE
8
0
10
161.055344
20
-194.7649526
11
156.0561111
21
-207.7883995
0
LINE
8
0
10
174.9875693
20
-214.5859659
11
187.9751432
21
-220.920429
0
LINE
8
0
10
187.9751432
20
-220.920429
11
194.0904207
21
-208.3822521
0
LINE
8
0
10
194.0904207
20
-208.3822521
11
181.1028468
21
-202.047789
0
LINE
8
0
10
181.1028468
20
-202.047789
11
174.9875693
21
-214.5859659
0
LINE
8
0
10
192.7501965
20
-222.7016074
11
204.440492
21
-231.1951043
0
LINE
8
0
10
204.440492
20
-231.1951043
11
212.6400963
21
-219.9093172
0
LINE
8
0
10
212.6400963
20
-219.9093172
11
200.9498008
21
-211.4158203
0
LINE
8
0
10
200.9498008
20
-211.4158203
11
192.7501965
21
-222.7016074
0
LINE
8
0
10
208.5478068
20
-234.1072884
11
218.5856202
21
-244.5017485
0
LINE
8
0
10
218.5856202
20
-244.5017485
11
228.6204104
21
-234.8112642
0
LINE
8
0
10
228.6204104
20
-234.8112642
11
218.582597
21
-224.4168041
0
LINE
8
0
10
218.582597
20
-224.4168041
11
208.5478068
21
-234.1072884
0
ENDSEC
0
EOF