0
SECTION
2
HEADER
9
$INSUNITS
70
4
0
ENDSEC
0
SECTION
2
TABLES
0
TABLE
2
LTYPE
0
LTYPE
72
65
70
64
2
CONTINUOUS
3
______
73
0
40
0
0
ENDTAB
0
TABLE
2
LAYER
0
ENDTAB
0
ENDSEC
0
SECTION
2
ENTITIES
0
LINE
8
0
10
99.6259041
20
-155.5865651
11
125.7059014
21
-162.5746793
0
LINE
8
0
10
125.7059014
20
-162.5746793
11
121.3059777
21
-178.9954183
0
LINE
8
0
10
121.3059777
20
-178.9954183
11
95.2259804
21
-172.0073041
0
LINE
8
0
10
95.2259804
20
-172.0073041
11
99.6259041
21
-155.5865651
0
LINE
8
0
10
104.0258279
20
-139.165826
11
130.1058252
21
-146.1539402
0
LINE
8
0
10
130.1058252
20
-146.1539402
11
125.7059015
21
-162.5746792
0
LINE
8
0
10
125.7059015
20
-162.5746792
11
99.6259042
21
-155.586565
0
LINE
8
0
10
99.6259042
20
-155.586565
11
104.0258279
21
-139.165826
0
LINE
8
0
10
108.4257517
20
-122.745087
11
134.505749
21
-129.7332012
0
LINE
8
0
10
134.505749
20
-129.7332012
11
130.1058253
21
-146.1539402
0
LINE
8
0
10
130.1058253
20
-146.1539402
11
104.025828
21
-139.165826
0
LINE
8
0
10
104.025828
20
-139.165826
11
108.4257517
21
-122.745087
0
LINE
8
0
10
112.8256754
20
-106.3243479
11
138.9056727
21
-113.3124621
0
LINE
8
0
10
138.9056727
20
-113.3124621
11
134.505749
21
-129.7332011
0
LINE
8
0
10
134.505749
20
-129.7332011
11
108.4257517
21
-122.7450869
0
LINE
8
0
10
108.4257517
20
-122.7450869
11
112.8256754
21
-106.3243479
0
LINE
8
0
10
126.9306463
20
-161.8675725
11
144.3173112
21
-166.5263153
0
LINE
8
0
10
144.3173112
20
-166.5263153
11
139.9173875
21
-182.9470543
0
LINE
8
0
10
139.9173875
20
-182.9470543
11
122.5307226
21
-178.2883115
0
LINE
8
0
10
122.5307226
20
-178.2883115
11
126.9306463
21
-161.8675725
0
LINE
8
0
10
131.3305701
20
-145.4468334
11
148.717235
21
-150.1055762
0
LINE
8
0
10
148.717235
20
-150.1055762
11
144.3173113
21
-166.5263152
0
LINE
8
0
10
144.3173113
20
-166.5263152
11
126.9306464
21
-161.8675724
0
LINE
8
0
10
126.9306464
20
-161.8675724
11
131.3305701
21
-145.4468334
0
LINE
8
0
10
135.7304938
20
-129.0260944
11
153.1171587
21
-133.6848372
0
LINE
8
0
10
153.1171587
20
-133.6848372
11
148.717235
21
-150.1055762
0
LINE
8
0
10
148.717235
20
-150.1055762
11
131.3305701
21
-145.4468334
0
LINE
8
0
10
131.3305701
20
-145.4468334
11
135.7304938
21
-129.0260944
0
LINE
8
0
10
140.1304176
20
-112.6053554
11
157.5170825
21
-117.2640982
0
LINE
8
0
10
157.5170825
20
-117.2640982
11
153.1171588
21
-133.6848372
0
LINE
8
0
10
153.1171588
20
-133.6848372
11
135.7304939
21
-129.0260944
0
LINE
8
0
10
135.7304939
20
-129.0260944
11
140.1304176
21
-112.6053554
0
LINE
8
0
10
144.5303414
20
-96.1846163
11
161.9170063
21
-100.8433591
0
LINE
8
0
10
161.9170063
20
-100.8433591
11
157.5170826
21
-117.2640981
0
LINE
8
0
10
157.5170826
20
-117.2640981
11
140.1304177
21
-112.6053553
0
LINE
8
0
10
140.1304177
20
-112.6053553
11
144.5303414
21
-96.1846163
0
LINE
8
0
10
145.3754597
20
-166.7288711
11
162.7208079
21
-171.5391618
0
LINE
8
0
10
162.7208079
20
-171.5391618
11
158.1777555
21
-187.9208795
0
LINE
8
0
10
158.1777555
20
-187.9208795
11
140.8324073
21
-183.1105888
0
LINE
8
0
10
140.8324073
20
-183.1105888
11
145.3754597
21
-166.7288711
0
LINE
8
0
10
149.9185121
20
-150.3471533
11
167.2638603
21
-155.157444
0
LINE
8
0
10
167.2638603
20
-155.157444
11
162.7208079
21
-171.5391617
0
LINE
8
0
10
162.7208079
20
-171.5391617
11
145.3754597
21
-166.728871
0
LINE
8
0
10
145.3754597
20
-166.728871
11
149.9185121
21
-150.3471533
0
LINE
8
0
10
154.4615645
20
-133.9654356
11
171.8069127
21
-138.7757263
0
LINE
8
0
10
171.8069127
20
-138.7757263
11
167.2638603
21
-155.157444
0
LINE
8
0
10
167.2638603
20
-155.157444
11
149.9185121
21
-150.3471533
0
LINE
8
0
10
149.9185121
20
-150.3471533
11
154.4615645
21
-133.9654356
0
LINE
8
0
10
159.0046169
20
-117.5837179
11
176.3499651
21
-122.3940086
0
LINE
8
0
10
176.3499651
20
-122.3940086
11
171.8069127
21
-138.7757263
0
LINE
8
0
10
171.8069127
20
-138.7757263
11
154.4615645
21
-133.9654356
0
LINE
8
0
10
154.4615645
20
-133.9654356
11
159.0046169
21
-117.5837179
0
LINE
8
0
10
163.5476693
20
-101.2020002
11
180.8930175
21
-106.0122909
0
LINE
8
0
10
180.8930175
20
-106.0122909
11
176.3499651
21
-122.3940086
0
LINE
8
0
10
176.3499651
20
-122.3940086
11
159.0046169
21
-117.5837179
0
LINE
8
0
10
159.0046169
20
-117.5837179
11
163.5476693
21
-101.2020002
0
LINE
8
0
10
163.3889039
20
-169.1300857
11
180.7342521
21
-173.9403764
0
LINE
8
0
10
180.7342521
20
-173.9403764
11
176.1911997
21
-190.3220941
0
LINE
8
0
10
176.1911997
20
-190.3220941
11
158.8458515
21
-185.5118034
0
LINE
8
0
10
158.8458515
20
-185.5118034
11
163.3889039
21
-169.1300857
0
LINE
8
0
10
167.9319562
20
-152.748368
11
185.2773044
21
-157.5586587
0
LINE
8
0
10
185.2773044
20
-157.5586587
11
180.734252
21
-173.9403764
0
LINE
8
0
10
180.734252
20
-173.9403764
11
163.3889038
21
-169.1300857
0
LINE
8
0
10
163.3889038
20
-169.1300857
11
167.9319562
21
-152.748368
0
LINE
8
0
10
172.4750086
20
-136.3666502
11
189.8203568
21
-141.1769409
0
LINE
8
0
10
189.8203568
20
-141.1769409
11
185.2773044
21
-157.5586586
0
LINE
8
0
10
185.2773044
20
-157.5586586
11
167.9319562
21
-152.7483679
0
LINE
8
0
10
167.9319562
20
-152.7483679
11
172.4750086
21
-136.3666502
0
LINE
8
0
10
177.018061
20
-119.9849325
11
194.3634092
21
-124.7952232
0
LINE
8
0
10
194.3634092
20
-124.7952232
11
189.8203568
21
-141.1769409
0
LINE
8
0
10
189.8203568
20
-141.1769409
11
172.4750086
21
-136.3666502
0
LINE
8
0
10
172.4750086
20
-136.3666502
11
177.018061
21
-119.9849325
0
LINE
8
0
10
181.5611134
20
-103.6032148
11
198.9064616
21
-108.4135055
0
LINE
8
0
10
198.9064616
20
-108.4135055
11
194.3634092
21
-124.7952232
0
LINE
8
0
10
194.3634092
20
-124.7952232
11
177.018061
21
-119.9849325
0
LINE
8
0
10
177.018061
20
-119.9849325
11
181.5611134
21
-103.6032148
0
LINE
8
0
10
180.066156
20
-176.3494526
11
197.4115042
21
-181.1597433
0
LINE
8
0
10
197.4115042
20
-181.1597433
11
192.8684518
21
-197.541461
0
LINE
8
0
10
192.8684518
20
-197.541461
11
175.5231036
21
-192.7311703
0
LINE
8
0
10
175.5231036
20
-192.7311703
11
180.066156
21
-176.3494526
0
LINE
8
0
10
184.6092084
20
-159.9677349
11
201.9545566
21
-164.7780256
0
LINE
8
0
10
201.9545566
20
-164.7780256
11
197.4115042
21
-181.1597433
0
LINE
8
0
10
197.4115042
20
-181.1597433
11
180.066156
21
-176.3494526
0
LINE
8
0
10
180.066156
20
-176.3494526
11
184.6092084
21
-159.9677349
0
LINE
8
0
10
189.1522608
20
-143.5860172
11
206.497609
21
-148.3963079
0
LINE
8
0
10
206.497609
20
-148.3963079
11
201.9545566
21
-164.7780256
0
LINE
8
0
10
201.9545566
20
-164.7780256
11
184.6092084
21
-159.9677349
0
LINE
8
0
10
184.6092084
20
-159.9677349
11
189.1522608
21
-143.5860172
0
LINE
8
0
10
193.6953132
20
-127.2042995
11
211.0406614
21
-132.0145902
0
LINE
8
0
10
211.0406614
20
-132.0145902
11
206.497609
21
-148.3963079
0
LINE
8
0
10
206.497609
20
-148.3963079
11
189.1522608
21
-143.5860172
0
LINE
8
0
10
189.1522608
20
-143.5860172
11
193.6953132
21
-127.2042995
0
LINE
8
0
10
198.2383656
20
-110.8225818
11
215.5837138
21
-115.6328725
0
LINE
8
0
10
215.5837138
20
-115.6328725
11
211.0406614
21
-132.0145902
0
LINE
8
0
10
211.0406614
20
-132.0145902
11
193.6953132
21
-127.2042995
0
LINE
8
0
10
193.6953132
20
-127.2042995
11
198.2383656
21
-110.8225818
0
LINE
8
0
10
202.4855839
20
-167.4391527
11
219.7882944
21
-172.4006251
0
LINE
8
0
10
219.7882944
20
-172.4006251
11
215.1024593
21
-188.7420739
0
LINE
8
0
10
215.1024593
20
-188.7420739
11
197.7997488
21
-183.7806015
0
LINE
8
0
10
197.7997488
20
-183.7806015
11
202.4855839
21
-167.4391527
0
LINE
8
0
10
207.1714189
20
-151.0977039
11
224.4741294
21
-156.0591763
0
LINE
8
0
10
224.4741294
20
-156.0591763
11
219.7882943
21
-172.4006251
0
LINE
8
0
10
219.7882943
20
-172.4006251
11
202.4855838
21
-167.4391527
0
LINE
8
0
10
202.4855838
20
-167.4391527
11
207.1714189
21
-151.0977039
0
LINE
8
0
10
211.857254
20
-134.7562551
11
229.1599645
21
-139.7177275
0
LINE
8
0
10
229.1599645
20
-139.7177275
11
224.4741294
21
-156.0591763
0
LINE
8
0
10
224.4741294
20
-156.0591763
11
207.1714189
21
-151.0977039
0
LINE
8
0
10
207.1714189
20
-151.0977039
11
211.857254
21
-134.7562551
0
LINE
8
0
10
216.543089
20
-118.4148062
11
233.8457995
21
-123.3762786
0
LINE
8
0
10
233.8457995
20
-123.3762786
11
229.1599644
21
-139.7177274
0
LINE
8
0
10
229.1599644
20
-139.7177274
11
211.8572539
21
-134.756255
0
LINE
8
0
10
211.8572539
20
-134.756255
11
216.543089
21
-118.4148062
0
LINE
8
0
10
156.7113987
20
-192.0223313
11
173.5158464
21
-198.4729544
0
LINE
8
0
10
173.5158464
20
-198.4729544
11
167.4235913
21
-214.3438217
0
LINE
8
0
10
167.4235913
20
-214.3438217
11
150.6191436
21
-207.8931986
0
LINE
8
0
10
150.6191436
20
-207.8931986
11
156.7113987
21
-192.0223313
0
LINE
8
0
10
176.7559361
20
-199.1445378
11
192.934229
21
-207.0352184
0
LINE
8
0
10
192.934229
20
-207.0352184
11
185.4819195
21
-222.3147172
0
LINE
8
0
10
185.4819195
20
-222.3147172
11
169.3036266
21
-214.4240366
0
LINE
8
0
10
169.3036266
20
-214.4240366
11
176.7559361
21
-199.1445378
0
LINE
8
0
10
196.8103422
20
-208.2965947
11
211.3726481
21
-218.8767292
0
LINE
8
0
10
211.3726481
20
-218.8767292
11
201.3802988
21
-232.6300181
0
LINE
8
0
10
201.3802988
20
-232.6300181
11
186.8179929
21
-222.0498836
0
LINE
8
0
10
186.8179929
20
-222.0498836
11
196.8103422
21
-208.2965947
0
LINE
8
0
10
214.6849422
20
-221.120909
11
227.1887928
21
-234.0690255
0
LINE
8
0
10
227.1887928
20
-234.0690255
11
214.9600162
21
-245.8782178
0
LINE
8
0
10
214.9600162
20
-245.8782178
11
202.4561656
21
-232.9301013
0
LINE
8
0
10
202.4561656
20
-232.9301013
11
214.6849422
21
-221.120909
0
ENDSEC
0
EOF