0
SECTION
2
HEADER
9
$INSUNITS
70
4
0
ENDSEC
0
SECTION
2
TABLES
0
TABLE
2
LTYPE
0
LTYPE
72
65
70
64
2
CONTINUOUS
3
______
73
0
40
0
0
ENDTAB
0
TABLE
2
LAYER
0
ENDTAB
0
ENDSEC
0
SECTION
2
ENTITIES
0
LINE
8
0
10
101.5909373
20
-171.4351816
11
116.0798247
21
-175.3174672
0
LINE
8
0
10
116.0798247
20
-175.3174672
11
119.9621103
21
-160.8285798
0
LINE
8
0
10
119.9621103
20
-160.8285798
11
105.4732229
21
-156.9462942
0
LINE
8
0
10
105.4732229
20
-156.9462942
11
101.5909373
21
-171.4351816
0
LINE
8
0
10
106.3014439
20
-153.8553315
11
120.7903313
21
-157.7376171
0
LINE
8
0
10
120.7903313
20
-157.7376171
11
124.6726169
21
-143.2487297
0
LINE
8
0
10
124.6726169
20
-143.2487297
11
110.1837295
21
-139.3664441
0
LINE
8
0
10
110.1837295
20
-139.3664441
11
106.3014439
21
-153.8553315
0
LINE
8
0
10
111.0119505
20
-136.2754815
11
125.5008379
21
-140.1577671
0
LINE
8
0
10
125.5008379
20
-140.1577671
11
129.3831235
21
-125.6688797
0
LINE
8
0
10
129.3831235
20
-125.6688797
11
114.8942361
21
-121.7865941
0
LINE
8
0
10
114.8942361
20
-121.7865941
11
111.0119505
21
-136.2754815
0
LINE
8
0
10
115.7224572
20
-118.6956315
11
130.2113446
21
-122.5779171
0
LINE
8
0
10
130.2113446
20
-122.5779171
11
134.0936302
21
-108.0890297
0
LINE
8
0
10
134.0936302
20
-108.0890297
11
119.6047428
21
-104.2067441
0
LINE
8
0
10
119.6047428
20
-104.2067441
11
115.7224572
21
-118.6956315
0
LINE
8
0
10
124.7731571
20
-177.6468387
11
139.2620445
21
-181.5291243
0
LINE
8
0
10
139.2620445
20
-181.5291243
11
143.1443301
21
-167.0402369
0
LINE
8
0
10
143.1443301
20
-167.0402369
11
128.6554427
21
-163.1579513
0
LINE
8
0
10
128.6554427
20
-163.1579513
11
124.7731571
21
-177.6468387
0
LINE
8
0
10
129.4836638
20
-160.0669886
11
143.9725512
21
-163.9492742
0
LINE
8
0
10
143.9725512
20
-163.9492742
11
147.8548368
21
-149.4603868
0
LINE
8
0
10
147.8548368
20
-149.4603868
11
133.3659494
21
-145.5781012
0
LINE
8
0
10
133.3659494
20
-145.5781012
11
129.4836638
21
-160.0669886
0
LINE
8
0
10
134.1941704
20
-142.4871386
11
148.6830578
21
-146.3694242
0
LINE
8
0
10
148.6830578
20
-146.3694242
11
152.5653434
21
-131.8805368
0
LINE
8
0
10
152.5653434
20
-131.8805368
11
138.076456
21
-127.9982512
0
LINE
8
0
10
138.076456
20
-127.9982512
11
134.1941704
21
-142.4871386
0
LINE
8
0
10
138.904677
20
-124.9072885
11
153.3935644
21
-128.7895741
0
LINE
8
0
10
153.3935644
20
-128.7895741
11
157.27585
21
-114.3006867
0
LINE
8
0
10
157.27585
20
-114.3006867
11
142.7869626
21
-110.4184011
0
LINE
8
0
10
142.7869626
20
-110.4184011
11
138.904677
21
-124.9072885
0
LINE
8
0
10
143.6151836
20
-107.3274385
11
158.104071
21
-111.2097241
0
LINE
8
0
10
158.104071
20
-111.2097241
11
161.9863566
21
-96.7208367
0
LINE
8
0
10
161.9863566
20
-96.7208367
11
147.4974692
21
-92.8385511
0
LINE
8
0
10
147.4974692
20
-92.8385511
11
143.6151836
21
-107.3274385
0
LINE
8
0
10
143.2730033
20
-182.535804
11
157.7274601
21
-186.5443796
0
LINE
8
0
10
157.7274601
20
-186.5443796
11
161.7360357
21
-172.0899228
0
LINE
8
0
10
161.7360357
20
-172.0899228
11
147.2815789
21
-168.0813472
0
LINE
8
0
10
147.2815789
20
-168.0813472
11
143.2730033
21
-182.535804
0
LINE
8
0
10
148.1367417
20
-164.9977298
11
162.5911985
21
-169.0063054
0
LINE
8
0
10
162.5911985
20
-169.0063054
11
166.5997741
21
-154.5518486
0
LINE
8
0
10
166.5997741
20
-154.5518486
11
152.1453173
21
-150.543273
0
LINE
8
0
10
152.1453173
20
-150.543273
11
148.1367417
21
-164.9977298
0
LINE
8
0
10
153.0004801
20
-147.4596555
11
167.4549369
21
-151.4682311
0
LINE
8
0
10
167.4549369
20
-151.4682311
11
171.4635125
21
-137.0137743
0
LINE
8
0
10
171.4635125
20
-137.0137743
11
157.0090557
21
-133.0051987
0
LINE
8
0
10
157.0090557
20
-133.0051987
11
153.0004801
21
-147.4596555
0
LINE
8
0
10
157.8642185
20
-129.9215812
11
172.3186753
21
-133.9301568
0
LINE
8
0
10
172.3186753
20
-133.9301568
11
176.3272509
21
-119.4757
0
LINE
8
0
10
176.3272509
20
-119.4757
11
161.8727941
21
-115.4671244
0
LINE
8
0
10
161.8727941
20
-115.4671244
11
157.8642185
21
-129.9215812
0
LINE
8
0
10
162.7279569
20
-112.383507
11
177.1824137
21
-116.3920826
0
LINE
8
0
10
177.1824137
20
-116.3920826
11
181.1909893
21
-101.9376258
0
LINE
8
0
10
181.1909893
20
-101.9376258
11
166.7365325
21
-97.9290502
0
LINE
8
0
10
166.7365325
20
-97.9290502
11
162.7279569
21
-112.383507
0
LINE
8
0
10
162.442804
20
-185.2577047
11
176.8972608
21
-189.2662803
0
LINE
8
0
10
176.8972608
20
-189.2662803
11
180.9058364
21
-174.8118235
0
LINE
8
0
10
180.9058364
20
-174.8118235
11
166.4513796
21
-170.8032479
0
LINE
8
0
10
166.4513796
20
-170.8032479
11
162.442804
21
-185.2577047
0
LINE
8
0
10
167.3065424
20
-167.7196305
11
181.7609992
21
-171.7282061
0
LINE
8
0
10
181.7609992
20
-171.7282061
11
185.7695748
21
-157.2737493
0
LINE
8
0
10
185.7695748
20
-157.2737493
11
171.315118
21
-153.2651737
0
LINE
8
0
10
171.315118
20
-153.2651737
11
167.3065424
21
-167.7196305
0
LINE
8
0
10
172.1702808
20
-150.1815562
11
186.6247376
21
-154.1901318
0
LINE
8
0
10
186.6247376
20
-154.1901318
11
190.6333132
21
-139.735675
0
LINE
8
0
10
190.6333132
20
-139.735675
11
176.1788564
21
-135.7270994
0
LINE
8
0
10
176.1788564
20
-135.7270994
11
172.1702808
21
-150.1815562
0
LINE
8
0
10
177.0340192
20
-132.643482
11
191.488476
21
-136.6520576
0
LINE
8
0
10
191.488476
20
-136.6520576
11
195.4970516
21
-122.1976008
0
LINE
8
0
10
195.4970516
20
-122.1976008
11
181.0425948
21
-118.1890252
0
LINE
8
0
10
181.0425948
20
-118.1890252
11
177.0340192
21
-132.643482
0
LINE
8
0
10
181.8977576
20
-115.1054077
11
196.3522144
21
-119.1139833
0
LINE
8
0
10
196.3522144
20
-119.1139833
11
200.36079
21
-104.6595265
0
LINE
8
0
10
200.36079
20
-104.6595265
11
185.9063332
21
-100.6509509
0
LINE
8
0
10
185.9063332
20
-100.6509509
11
181.8977576
21
-115.1054077
0
LINE
8
0
10
180.2764126
20
-192.7977577
11
194.7308694
21
-196.8063333
0
LINE
8
0
10
194.7308694
20
-196.8063333
11
198.739445
21
-182.3518765
0
LINE
8
0
10
198.739445
20
-182.3518765
11
184.2849882
21
-178.3433009
0
LINE
8
0
10
184.2849882
20
-178.3433009
11
180.2764126
21
-192.7977577
0
LINE
8
0
10
185.140151
20
-175.2596834
11
199.5946078
21
-179.268259
0
LINE
8
0
10
199.5946078
20
-179.268259
11
203.6031834
21
-164.8138022
0
LINE
8
0
10
203.6031834
20
-164.8138022
11
189.1487266
21
-160.8052266
0
LINE
8
0
10
189.1487266
20
-160.8052266
11
185.140151
21
-175.2596834
0
LINE
8
0
10
190.0038894
20
-157.7216092
11
204.4583462
21
-161.7301848
0
LINE
8
0
10
204.4583462
20
-161.7301848
11
208.4669218
21
-147.275728
0
LINE
8
0
10
208.4669218
20
-147.275728
11
194.012465
21
-143.2671524
0
LINE
8
0
10
194.012465
20
-143.2671524
11
190.0038894
21
-157.7216092
0
LINE
8
0
10
194.8676278
20
-140.1835349
11
209.3220846
21
-144.1921105
0
LINE
8
0
10
209.3220846
20
-144.1921105
11
213.3306602
21
-129.7376537
0
LINE
8
0
10
213.3306602
20
-129.7376537
11
198.8762034
21
-125.7290781
0
LINE
8
0
10
198.8762034
20
-125.7290781
11
194.8676278
21
-140.1835349
0
LINE
8
0
10
199.7313662
20
-122.6454606
11
214.185823
21
-126.6540362
0
LINE
8
0
10
214.185823
20
-126.6540362
11
218.1943986
21
-112.1995794
0
LINE
8
0
10
218.1943986
20
-112.1995794
11
203.7399418
21
-108.1910038
0
LINE
8
0
10
203.7399418
20
-108.1910038
11
199.7313662
21
-122.6454606
0
LINE
8
0
10
203.0813946
20
-182.7620897
11
217.5003201
21
-186.89665
0
LINE
8
0
10
217.5003201
20
-186.89665
11
221.6348804
21
-172.4777245
0
LINE
8
0
10
221.6348804
20
-172.4777245
11
207.2159549
21
-168.3431642
0
LINE
8
0
10
207.2159549
20
-168.3431642
11
203.0813946
21
-182.7620897
0
LINE
8
0
10
208.0979945
20
-165.2671268
11
222.51692
21
-169.4016871
0
LINE
8
0
10
222.51692
20
-169.4016871
11
226.6514803
21
-154.9827616
0
LINE
8
0
10
226.6514803
20
-154.9827616
11
212.2325548
21
-150.8482013
0
LINE
8
0
10
212.2325548
20
-150.8482013
11
208.0979945
21
-165.2671268
0
LINE
8
0
10
213.1145944
20
-147.7721639
11
227.5335199
21
-151.9067242
0
LINE
8
0
10
227.5335199
20
-151.9067242
11
231.6680802
21
-137.4877987
0
LINE
8
0
10
231.6680802
20
-137.4877987
11
217.2491547
21
-133.3532384
0
LINE
8
0
10
217.2491547
20
-133.3532384
11
213.1145944
21
-147.7721639
0
LINE
8
0
10
218.1311943
20
-130.277201
11
232.5501198
21
-134.4117613
0
LINE
8
0
10
232.5501198
20
-134.4117613
11
236.6846801
21
-119.9928358
0
LINE
8
0
10
236.6846801
20
-119.9928358
11
222.2657546
21
-115.8582755
0
LINE
8
0
10
222.2657546
20
-115.8582755
11
218.1311943
21
-130.277201
0
LINE
8
0
10
155.6112333
20
-208.1799781
11
169.6149397
21
-213.5554973
0
LINE
8
0
10
169.6149397
20
-213.5554973
11
174.9904589
21
-199.5517909
0
LINE
8
0
10
174.9904589
20
-199.5517909
11
160.9867525
21
-194.1762717
0
LINE
8
0
10
160.9867525
20
-194.1762717
11
155.6112333
21
-208.1799781
0
LINE
8
0
10
174.5102561
20
-214.9372807
11
187.9921667
21
-221.5128479
0
LINE
8
0
10
187.9921667
20
-221.5128479
11
194.5677339
21
-208.0309373
0
LINE
8
0
10
194.5677339
20
-208.0309373
11
181.0858233
21
-201.4553701
0
LINE
8
0
10
181.0858233
20
-201.4553701
11
174.5102561
21
-214.9372807
0
LINE
8
0
10
192.2191295
20
-222.9647004
11
204.3543845
21
-231.7814792
0
LINE
8
0
10
204.3543845
20
-231.7814792
11
213.1711633
21
-219.6462242
0
LINE
8
0
10
213.1711633
20
-219.6462242
11
201.0359083
21
-210.8294454
0
LINE
8
0
10
201.0359083
20
-210.8294454
11
192.2191295
21
-222.9647004
0
LINE
8
0
10
207.9791223
20
-234.2741656
11
218.3989979
21
-245.0642626
0
LINE
8
0
10
218.3989979
20
-245.0642626
11
229.1890949
21
-234.644387
0
LINE
8
0
10
229.1890949
20
-234.644387
11
218.7692193
21
-223.85429
0
LINE
8
0
10
218.7692193
20
-223.85429
11
207.9791223
21
-234.2741656
0
ENDSEC
0
EOF