0
SECTION
2
HEADER
9
$INSUNITS
70
4
0
ENDSEC
0
SECTION
2
TABLES
0
TABLE
2
LTYPE
0
LTYPE
72
65
70
64
2
CONTINUOUS
3
______
73
0
40
0
0
ENDTAB
0
TABLE
2
LAYER
0
ENDTAB
0
ENDSEC
0
SECTION
2
ENTITIES
0
LINE
8
0
10
104.0694119
20
-153.8784261
11
122.7117803
21
-158.8736336
0
LINE
8
0
10
122.7117803
20
-158.8736336
11
118.0530375
21
-176.2602985
0
LINE
8
0
10
118.0530375
20
-176.2602985
11
99.4106691
21
-171.265091
0
LINE
8
0
10
99.4106691
20
-171.265091
11
104.0694119
21
-153.8784261
0
LINE
8
0
10
109.0646195
20
-135.2360576
11
127.7069879
21
-140.2312651
0
LINE
8
0
10
127.7069879
20
-140.2312651
11
123.0482451
21
-157.61793
0
LINE
8
0
10
123.0482451
20
-157.61793
11
104.4058767
21
-152.6227225
0
LINE
8
0
10
104.4058767
20
-152.6227225
11
109.0646195
21
-135.2360576
0
LINE
8
0
10
114.0598271
20
-116.5936892
11
132.7021955
21
-121.5888967
0
LINE
8
0
10
132.7021955
20
-121.5888967
11
128.0434527
21
-138.9755616
0
LINE
8
0
10
128.0434527
20
-138.9755616
11
109.4010843
21
-133.9803541
0
LINE
8
0
10
109.4010843
20
-133.9803541
11
114.0598271
21
-116.5936892
0
LINE
8
0
10
119.0550347
20
-97.9513207
11
137.6974031
21
-102.9465282
0
LINE
8
0
10
137.6974031
20
-102.9465282
11
133.0386603
21
-120.3331931
0
LINE
8
0
10
133.0386603
20
-120.3331931
11
114.3962919
21
-115.3379856
0
LINE
8
0
10
114.3962919
20
-115.3379856
11
119.0550347
21
-97.9513207
0
LINE
8
0
10
128.6522242
20
-160.4653708
11
146.038889
21
-165.1241136
0
LINE
8
0
10
146.038889
20
-165.1241136
11
141.3801462
21
-182.5107784
0
LINE
8
0
10
141.3801462
20
-182.5107784
11
123.9934814
21
-177.8520356
0
LINE
8
0
10
123.9934814
20
-177.8520356
11
128.6522242
21
-160.4653708
0
LINE
8
0
10
133.6474318
20
-141.8230023
11
151.0340966
21
-146.4817451
0
LINE
8
0
10
151.0340966
20
-146.4817451
11
146.3753538
21
-163.8684099
0
LINE
8
0
10
146.3753538
20
-163.8684099
11
128.988689
21
-159.2096671
0
LINE
8
0
10
128.988689
20
-159.2096671
11
133.6474318
21
-141.8230023
0
LINE
8
0
10
138.6426394
20
-123.1806339
11
156.0293042
21
-127.8393767
0
LINE
8
0
10
156.0293042
20
-127.8393767
11
151.3705614
21
-145.2260415
0
LINE
8
0
10
151.3705614
20
-145.2260415
11
133.9838966
21
-140.5672987
0
LINE
8
0
10
133.9838966
20
-140.5672987
11
138.6426394
21
-123.1806339
0
LINE
8
0
10
143.637847
20
-104.5382654
11
161.0245118
21
-109.1970082
0
LINE
8
0
10
161.0245118
20
-109.1970082
11
156.365769
21
-126.583673
0
LINE
8
0
10
156.365769
20
-126.583673
11
138.9791042
21
-121.9249302
0
LINE
8
0
10
138.9791042
20
-121.9249302
11
143.637847
21
-104.5382654
0
LINE
8
0
10
148.6330545
20
-85.895897
11
166.0197193
21
-90.5546398
0
LINE
8
0
10
166.0197193
20
-90.5546398
11
161.3609765
21
-107.9413046
0
LINE
8
0
10
161.3609765
20
-107.9413046
11
143.9743117
21
-103.2825618
0
LINE
8
0
10
143.9743117
20
-103.2825618
11
148.6330545
21
-85.895897
0
LINE
8
0
10
147.391025
20
-165.4054627
11
164.7363732
21
-170.2157535
0
LINE
8
0
10
164.7363732
20
-170.2157535
11
159.9260824
21
-187.5611017
0
LINE
8
0
10
159.9260824
20
-187.5611017
11
142.5807342
21
-182.7508109
0
LINE
8
0
10
142.5807342
20
-182.7508109
11
147.391025
21
-165.4054627
0
LINE
8
0
10
152.5487256
20
-146.8073949
11
169.8940738
21
-151.6176857
0
LINE
8
0
10
169.8940738
20
-151.6176857
11
165.083783
21
-168.9630339
0
LINE
8
0
10
165.083783
20
-168.9630339
11
147.7384348
21
-164.1527431
0
LINE
8
0
10
147.7384348
20
-164.1527431
11
152.5487256
21
-146.8073949
0
LINE
8
0
10
157.7064262
20
-128.2093272
11
175.0517744
21
-133.019618
0
LINE
8
0
10
175.0517744
20
-133.019618
11
170.2414836
21
-150.3649662
0
LINE
8
0
10
170.2414836
20
-150.3649662
11
152.8961354
21
-145.5546754
0
LINE
8
0
10
152.8961354
20
-145.5546754
11
157.7064262
21
-128.2093272
0
LINE
8
0
10
162.8641268
20
-109.6112594
11
180.209475
21
-114.4215502
0
LINE
8
0
10
180.209475
20
-114.4215502
11
175.3991842
21
-131.7668984
0
LINE
8
0
10
175.3991842
20
-131.7668984
11
158.053836
21
-126.9566076
0
LINE
8
0
10
158.053836
20
-126.9566076
11
162.8641268
21
-109.6112594
0
LINE
8
0
10
168.0218275
20
-91.0131917
11
185.3671757
21
-95.8234825
0
LINE
8
0
10
185.3671757
20
-95.8234825
11
180.5568849
21
-113.1688307
0
LINE
8
0
10
180.5568849
20
-113.1688307
11
163.2115367
21
-108.3585399
0
LINE
8
0
10
163.2115367
20
-108.3585399
11
168.0218275
21
-91.0131917
0
LINE
8
0
10
166.6571887
20
-168.1540872
11
184.0025369
21
-172.964378
0
LINE
8
0
10
184.0025369
20
-172.964378
11
179.1922461
21
-190.3097262
0
LINE
8
0
10
179.1922461
20
-190.3097262
11
161.8468979
21
-185.4994354
0
LINE
8
0
10
161.8468979
20
-185.4994354
11
166.6571887
21
-168.1540872
0
LINE
8
0
10
171.8148893
20
-149.5560194
11
189.1602375
21
-154.3663102
0
LINE
8
0
10
189.1602375
20
-154.3663102
11
184.3499467
21
-171.7116584
0
LINE
8
0
10
184.3499467
20
-171.7116584
11
167.0045985
21
-166.9013676
0
LINE
8
0
10
167.0045985
20
-166.9013676
11
171.8148893
21
-149.5560194
0
LINE
8
0
10
176.97259
20
-130.9579517
11
194.3179382
21
-135.7682425
0
LINE
8
0
10
194.3179382
20
-135.7682425
11
189.5076474
21
-153.1135907
0
LINE
8
0
10
189.5076474
20
-153.1135907
11
172.1622992
21
-148.3032999
0
LINE
8
0
10
172.1622992
20
-148.3032999
11
176.97259
21
-130.9579517
0
LINE
8
0
10
182.1302906
20
-112.3598839
11
199.4756388
21
-117.1701747
0
LINE
8
0
10
199.4756388
20
-117.1701747
11
194.665348
21
-134.5155229
0
LINE
8
0
10
194.665348
20
-134.5155229
11
177.3199998
21
-129.7052321
0
LINE
8
0
10
177.3199998
20
-129.7052321
11
182.1302906
21
-112.3598839
0
LINE
8
0
10
187.2879912
20
-93.7618162
11
204.6333394
21
-98.572107
0
LINE
8
0
10
204.6333394
20
-98.572107
11
199.8230486
21
-115.9174552
0
LINE
8
0
10
199.8230486
20
-115.9174552
11
182.4777004
21
-111.1071644
0
LINE
8
0
10
182.4777004
20
-111.1071644
11
187.2879912
21
-93.7618162
0
LINE
8
0
10
184.5871604
20
-175.720864
11
201.9325086
21
-180.5311548
0
LINE
8
0
10
201.9325086
20
-180.5311548
11
197.1222178
21
-197.876503
0
LINE
8
0
10
197.1222178
20
-197.876503
11
179.7768696
21
-193.0662122
0
LINE
8
0
10
179.7768696
20
-193.0662122
11
184.5871604
21
-175.720864
0
LINE
8
0
10
189.7448611
20
-157.1227962
11
207.0902093
21
-161.933087
0
LINE
8
0
10
207.0902093
20
-161.933087
11
202.2799185
21
-179.2784352
0
LINE
8
0
10
202.2799185
20
-179.2784352
11
184.9345703
21
-174.4681444
0
LINE
8
0
10
184.9345703
20
-174.4681444
11
189.7448611
21
-157.1227962
0
LINE
8
0
10
194.9025617
20
-138.5247285
11
212.2479099
21
-143.3350193
0
LINE
8
0
10
212.2479099
20
-143.3350193
11
207.4376191
21
-160.6803675
0
LINE
8
0
10
207.4376191
20
-160.6803675
11
190.0922709
21
-155.8700767
0
LINE
8
0
10
190.0922709
20
-155.8700767
11
194.9025617
21
-138.5247285
0
LINE
8
0
10
200.0602623
20
-119.9266608
11
217.4056105
21
-124.7369516
0
LINE
8
0
10
217.4056105
20
-124.7369516
11
212.5953197
21
-142.0822998
0
LINE
8
0
10
212.5953197
20
-142.0822998
11
195.2499715
21
-137.272009
0
LINE
8
0
10
195.2499715
20
-137.272009
11
200.0602623
21
-119.9266608
0
LINE
8
0
10
205.2179629
20
-101.328593
11
222.5633111
21
-106.1388838
0
LINE
8
0
10
222.5633111
20
-106.1388838
11
217.7530203
21
-123.484232
0
LINE
8
0
10
217.7530203
20
-123.484232
11
200.4076721
21
-118.6739412
0
LINE
8
0
10
200.4076721
20
-118.6739412
11
205.2179629
21
-101.328593
0
LINE
8
0
10
207.9338428
20
-164.681018
11
225.2365534
21
-169.6424904
0
LINE
8
0
10
225.2365534
20
-169.6424904
11
220.275081
21
-186.945201
0
LINE
8
0
10
220.275081
20
-186.945201
11
202.9723704
21
-181.9837286
0
LINE
8
0
10
202.9723704
20
-181.9837286
11
207.9338428
21
-164.681018
0
LINE
8
0
10
213.2536437
20
-146.1286673
11
230.5563543
21
-151.0901397
0
LINE
8
0
10
230.5563543
20
-151.0901397
11
225.5948819
21
-168.3928503
0
LINE
8
0
10
225.5948819
20
-168.3928503
11
208.2921713
21
-163.4313779
0
LINE
8
0
10
208.2921713
20
-163.4313779
11
213.2536437
21
-146.1286673
0
LINE
8
0
10
218.5734446
20
-127.5763166
11
235.8761552
21
-132.537789
0
LINE
8
0
10
235.8761552
20
-132.537789
11
230.9146828
21
-149.8404996
0
LINE
8
0
10
230.9146828
20
-149.8404996
11
213.6119722
21
-144.8790272
0
LINE
8
0
10
213.6119722
20
-144.8790272
11
218.5734446
21
-127.5763166
0
LINE
8
0
10
223.8932456
20
-109.0239658
11
241.1959562
21
-113.9854382
0
LINE
8
0
10
241.1959562
20
-113.9854382
11
236.2344838
21
-131.2881488
0
LINE
8
0
10
236.2344838
20
-131.2881488
11
218.9317732
21
-126.3266764
0
LINE
8
0
10
218.9317732
20
-126.3266764
11
223.8932456
21
-109.0239658
0
LINE
8
0
10
161.5670572
20
-191.4889393
11
178.3715049
21
-197.9395624
0
LINE
8
0
10
178.3715049
20
-197.9395624
11
171.9208818
21
-214.7440101
0
LINE
8
0
10
171.9208818
20
-214.7440101
11
155.1164341
21
-208.293387
0
LINE
8
0
10
155.1164341
20
-208.293387
11
161.5670572
21
-191.4889393
0
LINE
8
0
10
182.8652508
20
-199.0944173
11
199.0435436
21
-206.9850979
0
LINE
8
0
10
199.0435436
20
-206.9850979
11
191.152863
21
-223.1633907
0
LINE
8
0
10
191.152863
20
-223.1633907
11
174.9745702
21
-215.2727101
0
LINE
8
0
10
174.9745702
20
-215.2727101
11
182.8652508
21
-199.0944173
0
LINE
8
0
10
204.162796
20
-208.8612453
11
218.7251019
21
-219.4413798
0
LINE
8
0
10
218.7251019
20
-219.4413798
11
208.1449674
21
-234.0036857
0
LINE
8
0
10
208.1449674
20
-234.0036857
11
193.5826615
21
-223.4235512
0
LINE
8
0
10
193.5826615
20
-223.4235512
11
204.162796
21
-208.8612453
0
LINE
8
0
10
223.1548955
20
-222.5068596
11
235.6587461
21
-235.454976
0
LINE
8
0
10
235.6587461
20
-235.454976
11
222.7106297
21
-247.9588266
0
LINE
8
0
10
222.7106297
20
-247.9588266
11
210.2067791
21
-235.0107102
0
LINE
8
0
10
210.2067791
20
-235.0107102
11
223.1548955
21
-222.5068596
0
ENDSEC
0
EOF